<svg xmlns="http://www.w3.org/2000/svg" viewBox="0 0 304.45 76.23"><defs><style>.cls-1{fill:#495eab;}.cls-2{fill:#6cccdc;}.cls-3{fill:#55c9e9;}.cls-4{fill:#5aba47;}</style></defs><g id="Layer_2" data-name="Layer 2"><g id="Printer_Marks" data-name="Printer Marks"><path class="cls-1" d="M104.3,21.91a10.82,10.82,0,0,0-2.85-4.25,13.55,13.55,0,0,0-4.93-2.8,22.28,22.28,0,0,0-7.17-1H74.12L68.24,62H77.8l2.06-16.7h5.61A25.33,25.33,0,0,0,94.2,44a16.75,16.75,0,0,0,6.15-3.77A15.31,15.31,0,0,0,104,34.47a21,21,0,0,0,1.21-7.22A15.2,15.2,0,0,0,104.3,21.91ZM95,32.08a8.27,8.27,0,0,1-1.61,3.12,7.15,7.15,0,0,1-2.83,2,10.85,10.85,0,0,1-4.2.73H80.75l2.1-16.82h5.57a9.14,9.14,0,0,1,3.17.49,5.87,5.87,0,0,1,2.23,1.43,6.07,6.07,0,0,1,1.31,2.21,8.93,8.93,0,0,1,.43,2.8A14.3,14.3,0,0,1,95,32.08Z"/><path class="cls-1" d="M134.36,60.17l-1.16-4.92L132.44,52l-3.06-13-2.54-10.76H120L103.75,62h5.3a2.42,2.42,0,0,0,1.44-.46,2.88,2.88,0,0,0,.93-1l2.28-5.31.34-.78.21-.49h12.06l.25,1.34,1,5.24a2.14,2.14,0,0,0,.68,1.09,2,2,0,0,0,1.37.42h5.2ZM116.25,49.25l4.58-10.64c.24-.57.53-1.24.86-2s.65-1.58,1-2.46q.18,1.32.39,2.46c.14.76.26,1.42.37,2l.87,4.62,1.13,6Z"/><path class="cls-1" d="M147.34,34.61a4.26,4.26,0,0,1,1.49-.94,6,6,0,0,1,2.08-.34,5.67,5.67,0,0,1,2.14.36,8.75,8.75,0,0,1,1.56.81c.45.29.84.56,1.18.8a1.75,1.75,0,0,0,1,.36,1.41,1.41,0,0,0,.86-.25,3.32,3.32,0,0,0,.72-.73l1.74-2.42.28-.39a9.2,9.2,0,0,0-1.61-1.56,11,11,0,0,0-2.08-1.24,12.59,12.59,0,0,0-2.45-.82,12.17,12.17,0,0,0-2.71-.31,12.41,12.41,0,0,0-4.9.93,11.38,11.38,0,0,0-3.72,2.5,10.4,10.4,0,0,0-1.46,1.86,11,11,0,0,0-.9,1.74,11.19,11.19,0,0,0-.82,4.24,8.72,8.72,0,0,0,.53,3.24,6.9,6.9,0,0,0,1.4,2.22,7.08,7.08,0,0,0,2,1.48,20.84,20.84,0,0,0,2.27,1l.86.31,1.4.49a10.79,10.79,0,0,1,2,.86,4.76,4.76,0,0,1,.68.46h0a4.5,4.5,0,0,1,.71.74,3,3,0,0,1,.53,1.82,5.51,5.51,0,0,1-.86,3.22,3.23,3.23,0,0,1-.47.58A5.05,5.05,0,0,1,147,57a6.21,6.21,0,0,1-2.55-.47,10,10,0,0,1-1.79-1l-.38-.28q-.53-.39-1-.75a1.92,1.92,0,0,0-1.2-.48,1.7,1.7,0,0,0-.87.25,2.54,2.54,0,0,0-.71.57l-.34.45-2.05,2.73a9.38,9.38,0,0,0,1.9,1.81,13.75,13.75,0,0,0,2.42,1.4,14.52,14.52,0,0,0,2.75.9,13.77,13.77,0,0,0,8.1-.65,11.73,11.73,0,0,0,3.91-2.64,11.46,11.46,0,0,0,2.47-3.84s0,0,0,0a12.7,12.7,0,0,0,.87-4.7,4.1,4.1,0,0,0,0-.5,7.64,7.64,0,0,0-.23-1.66,4.77,4.77,0,0,0-.28-.88A6.92,6.92,0,0,0,156.64,45a8,8,0,0,0-2-1.5,22.62,22.62,0,0,0-2.29-1.07q-1.15-.47-2.28-.87a11.64,11.64,0,0,1-2-.92,5.06,5.06,0,0,1-1.41-1.19,2.61,2.61,0,0,1-.53-1.67,5,5,0,0,1,.3-1.74A3.89,3.89,0,0,1,147.34,34.61Z"/><path class="cls-1" d="M181.22,45a7.36,7.36,0,0,0-1.13-1,6.91,6.91,0,0,0-.86-.54,24.84,24.84,0,0,0-2.29-1.07l-.81-.32-1.48-.55a12,12,0,0,1-2-.92,5.06,5.06,0,0,1-1.41-1.19,2.61,2.61,0,0,1-.53-1.67,4.46,4.46,0,0,1,.1-1,4,4,0,0,1,1.11-2.18,4.22,4.22,0,0,1,1.5-.94,6,6,0,0,1,2.08-.34,5.65,5.65,0,0,1,2.13.36,8.75,8.75,0,0,1,1.56.81c.45.29.84.56,1.19.8a1.72,1.72,0,0,0,1,.36,1.39,1.39,0,0,0,.86-.25,2.94,2.94,0,0,0,.72-.73l2-2.81a9.27,9.27,0,0,0-1.62-1.56,11,11,0,0,0-2.08-1.24,12.37,12.37,0,0,0-2.45-.82,12.17,12.17,0,0,0-2.71-.31,12.41,12.41,0,0,0-4.9.93,11.49,11.49,0,0,0-3.72,2.5A10.74,10.74,0,0,0,165.63,34a8.51,8.51,0,0,0-.48,1,11.2,11.2,0,0,0-.83,4.24,8.72,8.72,0,0,0,.53,3.24,7.07,7.07,0,0,0,1.4,2.22,7.23,7.23,0,0,0,2,1.48l.21.1a18.88,18.88,0,0,0,2.06.9l2.26.8a11.22,11.22,0,0,1,2,.86A4.4,4.4,0,0,1,176.1,50a2.91,2.91,0,0,1,.53,1.82,6.16,6.16,0,0,1-.48,2.54,4.06,4.06,0,0,1-.85,1.26A5.05,5.05,0,0,1,171.57,57a6.13,6.13,0,0,1-2.54-.47,9.7,9.7,0,0,1-1.79-1c-.36-.26-.7-.51-1-.75l-.35-.28a1.9,1.9,0,0,0-1.2-.48,1.7,1.7,0,0,0-.87.25,2.54,2.54,0,0,0-.71.57l0,0-2.37,3.15a9.65,9.65,0,0,0,1.9,1.81,13.75,13.75,0,0,0,2.42,1.4,14.76,14.76,0,0,0,2.75.9,13.77,13.77,0,0,0,8.1-.65,12.23,12.23,0,0,0,2.36-1.31,11.3,11.3,0,0,0,4-5.21,6.81,6.81,0,0,0,.26-.76,12.54,12.54,0,0,0,.61-3.94,7.66,7.66,0,0,0-.53-3A6.92,6.92,0,0,0,181.22,45Z"/><path class="cls-2" d="M213,36.59a10.77,10.77,0,0,0-.59-2.65,7.67,7.67,0,0,0-1.71-2.69l-.29-.29a9.62,9.62,0,0,0-3.45-2,15.82,15.82,0,0,0-5-.71H191.23l-1.69,13.8L188.1,53.87l-1,8.14h6.69l1-8.48.4-3.21h3.93a17.86,17.86,0,0,0,6.11-1,11.9,11.9,0,0,0,4.31-2.64,10.77,10.77,0,0,0,2.56-4,13.86,13.86,0,0,0,.69-2.77,15.3,15.3,0,0,0,.16-2.28C213,37.31,213,36.94,213,36.59Zm-6.72,1.7a10,10,0,0,1-.36,2.77,5.86,5.86,0,0,1-1.12,2.18,5,5,0,0,1-2,1.43,7.59,7.59,0,0,1-2.94.51h-3.95l.57-4.6.9-7.18h3.9a6.47,6.47,0,0,1,2.22.35,4.11,4.11,0,0,1,1.55,1,4,4,0,0,1,.92,1.55,6.11,6.11,0,0,1,.3,2Z"/><path class="cls-2" d="M246.48,37a14,14,0,0,0-2.79-4.75h0a13,13,0,0,0-4.42-3.19,14.3,14.3,0,0,0-5.87-1.16q-.79,0-1.56.06a18.58,18.58,0,0,0-3.45.61A17.67,17.67,0,0,0,224,30.51a17.91,17.91,0,0,0-3.68,3,13.36,13.36,0,0,0-1.19,1.42,17.08,17.08,0,0,0-1.61,2.49,20.24,20.24,0,0,0-1.78,4.69,21.39,21.39,0,0,0-.48,2.79,20.33,20.33,0,0,0-.14,2.49,18.34,18.34,0,0,0,.62,4.82c.1.38.22.75.35,1.11a14.07,14.07,0,0,0,2.79,4.75,12.89,12.89,0,0,0,4.42,3.16,14.47,14.47,0,0,0,5.87,1.15,18.31,18.31,0,0,0,5-.68,17.64,17.64,0,0,0,4.42-1.91l.4-.26a18.16,18.16,0,0,0,3.28-2.73,17.89,17.89,0,0,0,2.8-3.9,20.4,20.4,0,0,0,1.51-3.72q.15-.47.27-1a22.47,22.47,0,0,0,.62-5.18v-.11A17.47,17.47,0,0,0,246.48,37ZM239.8,48.77c-.13.44-.28.87-.44,1.28a12.49,12.49,0,0,1-1.7,3.08,9.52,9.52,0,0,1-3.36,2.8,9.72,9.72,0,0,1-4.41,1,8.24,8.24,0,0,1-1.33-.1,7,7,0,0,1-2-.59,6.7,6.7,0,0,1-2.38-1.84l-.11-.12a8.78,8.78,0,0,1-1.39-2.61,4,4,0,0,1-.15-.45,13.64,13.64,0,0,1-.54-4,20.06,20.06,0,0,1,.75-5.67,13.18,13.18,0,0,1,2.12-4.37,9.81,9.81,0,0,1,3.35-2.81,9.53,9.53,0,0,1,4.4-1h.27a7.31,7.31,0,0,1,3.09.69,7.16,7.16,0,0,1,2.51,2A8.82,8.82,0,0,1,240,39.11a13.34,13.34,0,0,1,.49,2.86c0,.36,0,.74,0,1.12A20,20,0,0,1,239.8,48.77Z"/><path class="cls-2" d="M275.16,33.39a6.81,6.81,0,0,0-2-2.69,10,10,0,0,0-3.48-1.77,18.22,18.22,0,0,0-5.13-.64h-9.87l-.62,5.05L253,42.48l-.72,5.94-1.31,10.71L250.57,62h6.69l.55-4.47,1.05-8.5h2a2.26,2.26,0,0,1,1.26.28,2.12,2.12,0,0,1,.7.88l1.82,4.4,2.52,6.1A2.21,2.21,0,0,0,269.48,62h6.06l-5-11.14-.5-1.11a5,5,0,0,0-.88-1.23,5,5,0,0,0-1.1-.86A12.4,12.4,0,0,0,271.33,46a11.28,11.28,0,0,0,2.05-2c.13-.16.25-.32.37-.49a10.35,10.35,0,0,0,1.52-3.09,12.44,12.44,0,0,0,.34-1.4,12.12,12.12,0,0,0,.15-1.21c0-.32,0-.66,0-1A9.08,9.08,0,0,0,275.16,33.39Zm-6.43,7a5.32,5.32,0,0,1-3.18,3.46,7.75,7.75,0,0,1-3,.51h-3.14l.6-4.88.65-5.21.1-.83h3.13a5.57,5.57,0,0,1,3.92,1.19,3,3,0,0,1,.25.25,3.8,3.8,0,0,1,.55.82,4.8,4.8,0,0,1,.47,2.18A8.29,8.29,0,0,1,268.73,40.35Z"/><path class="cls-2" d="M279.79,28.29l-.65,5.44h8.95L284.65,62h6.69l3.49-28.28h8.92l.7-5.44Z"/><path class="cls-3" d="M158.05,47.14A6.92,6.92,0,0,0,156.64,45a8,8,0,0,0-2-1.5,22.62,22.62,0,0,0-2.29-1.07q-1.15-.47-2.28-.87a11.64,11.64,0,0,1-2-.92,5.06,5.06,0,0,1-1.41-1.19,2.61,2.61,0,0,1-.53-1.67,5,5,0,0,1,.3-1.74,3.89,3.89,0,0,1,.91-1.42,4.26,4.26,0,0,1,1.49-.94,6,6,0,0,1,2.08-.34,5.67,5.67,0,0,1,2.14.36,8.75,8.75,0,0,1,1.56.81c.45.29.84.56,1.18.8a1.75,1.75,0,0,0,1,.36,1.41,1.41,0,0,0,.86-.25,3.32,3.32,0,0,0,.72-.73l1.74-2.42A36.28,36.28,0,0,0,153,31.6a39.53,39.53,0,0,0-11.53,1.63,11,11,0,0,0-.9,1.74,11.19,11.19,0,0,0-.82,4.24,8.72,8.72,0,0,0,.53,3.24,6.9,6.9,0,0,0,1.4,2.22,7.08,7.08,0,0,0,2,1.48,20.84,20.84,0,0,0,2.27,1l.86.31a15.22,15.22,0,0,1,5-.81,9.69,9.69,0,0,1,3.58.6,7.56,7.56,0,0,1,2.47,1.51,6.12,6.12,0,0,1,.79.92,7.64,7.64,0,0,0-.23-1.66A4.77,4.77,0,0,0,158.05,47.14ZM133.2,55.25,132.44,52l-3.06-13a41.13,41.13,0,0,0-5.06,4.16l1.13,6h-6.39a50.43,50.43,0,0,0-3,4.67h10.28l.25,1.34,1,5.24a2.14,2.14,0,0,0,.68,1.09,2,2,0,0,0,1.37.42h4c.25-.63.51-1.24.79-1.84ZM177.8,45a19.77,19.77,0,0,0-1.67-2.88l-1.48-.55a12,12,0,0,1-2-.92,5.06,5.06,0,0,1-1.41-1.19,2.61,2.61,0,0,1-.53-1.67,4.46,4.46,0,0,1,.1-1A26.61,26.61,0,0,0,165.63,34a8.51,8.51,0,0,0-.48,1,11.2,11.2,0,0,0-.83,4.24,8.72,8.72,0,0,0,.53,3.24,7.07,7.07,0,0,0,1.4,2.22,7.23,7.23,0,0,0,2,1.48l.21.1a18.88,18.88,0,0,0,2.06.9l2.26.8a11.22,11.22,0,0,1,2,.86A4.4,4.4,0,0,1,176.1,50a2.91,2.91,0,0,1,.53,1.82,6.16,6.16,0,0,1-.48,2.54,4.06,4.06,0,0,1-.85,1.26A5.05,5.05,0,0,1,171.57,57a6.13,6.13,0,0,1-2.54-.47,9.7,9.7,0,0,1-1.79-1c-.36-.26-.7-.51-1-.75l-.35-.28a1.9,1.9,0,0,0-1.2-.48,1.7,1.7,0,0,0-.87.25,2.54,2.54,0,0,0-.71.57l0,0-2.37,3.15a9.65,9.65,0,0,0,1.9,1.81,13.75,13.75,0,0,0,2.42,1.4,14.76,14.76,0,0,0,2.75.9,13.77,13.77,0,0,0,8.1-.65,12.23,12.23,0,0,0,2.36-1.31,23.63,23.63,0,0,0,1.26-7.78A17.17,17.17,0,0,0,177.8,45Z"/><path class="cls-1" d="M213,36.59a10.77,10.77,0,0,0-.59-2.65,7.67,7.67,0,0,0-1.71-2.69,36.52,36.52,0,0,0,2,8.18c.07.18.13.35.21.53a15.3,15.3,0,0,0,.16-2.28C213,37.31,213,36.94,213,36.59Zm34.13,6.46A18.32,18.32,0,0,1,240.51,42c0,.36,0,.74,0,1.12a20,20,0,0,1-.75,5.68c-.13.44-.28.87-.44,1.28a12.49,12.49,0,0,1-1.7,3.08,9.52,9.52,0,0,1-3.36,2.8,9.72,9.72,0,0,1-4.41,1,8.24,8.24,0,0,1-1.33-.1c.3.15.61.28.92.41a32.75,32.75,0,0,0,9.49,2.3,18.16,18.16,0,0,0,3.28-2.73,17.89,17.89,0,0,0,2.8-3.9,20.4,20.4,0,0,0,1.51-3.72q.15-.47.27-1a22.47,22.47,0,0,0,.62-5.18Zm26.53-6.45a6.45,6.45,0,0,0-1.8-1.39,4.42,4.42,0,0,0-2.11-.52,8.46,8.46,0,0,0-1.61.15,3.8,3.8,0,0,1,.55.82,4.8,4.8,0,0,1,.47,2.18,8.29,8.29,0,0,1-.38,2.51,5.32,5.32,0,0,1-3.18,3.46,7.75,7.75,0,0,1-3,.51h-3.14l.6-4.88a32.88,32.88,0,0,1-4.64,2.3,14.7,14.7,0,0,1-2.45.74l-.72,5.94-1.31,10.71c.78-.11,1.55-.24,2.29-.39a39.3,39.3,0,0,0,4.6-1.2l1.05-8.5h2a2.26,2.26,0,0,1,1.26.28,2.12,2.12,0,0,1,.7.88l1.82,4.4a47.72,47.72,0,0,0,5.86-3.73l-.5-1.11a5,5,0,0,0-.88-1.23,5,5,0,0,0-1.1-.86A12.4,12.4,0,0,0,271.33,46a11.28,11.28,0,0,0,2.05-2c.13-.16.25-.32.37-.49a10.35,10.35,0,0,0,1.52-3.09,12.44,12.44,0,0,0,.34-1.4ZM231.84,28a18.58,18.58,0,0,0-3.45.61A17.67,17.67,0,0,0,224,30.51a17.91,17.91,0,0,0-3.68,3,13.36,13.36,0,0,0-1.19,1.42,17.08,17.08,0,0,0-1.61,2.49,20.24,20.24,0,0,0-1.78,4.69,21.39,21.39,0,0,0-.48,2.79,29.16,29.16,0,0,0,4,5.36,28.52,28.52,0,0,0,4.91,4.13l-.11-.12a8.78,8.78,0,0,1-1.39-2.61,4,4,0,0,1-.15-.45,13.64,13.64,0,0,1-.54-4,20.06,20.06,0,0,1,.75-5.67,13.18,13.18,0,0,1,2.12-4.37,9.81,9.81,0,0,1,3.35-2.81,9.53,9.53,0,0,1,4.4-1h.27A24.79,24.79,0,0,1,231.84,28Z"/><path class="cls-4" d="M19.34,44.73q0,16.47,13.88,16.47A20.18,20.18,0,0,0,40.74,60a27.36,27.36,0,0,0,5-2.59l3.84-2.59a7.13,7.13,0,0,1,4.07-1.18,4.07,4.07,0,0,1,1.9.46,6.11,6.11,0,0,1,1.62,1.26l5,6a72,72,0,0,1-7.55,6.66A41.76,41.76,0,0,1,47,72.67a36.54,36.54,0,0,1-8.27,2.69,48.12,48.12,0,0,1-9.49.87A31.12,31.12,0,0,1,17.33,74a26.52,26.52,0,0,1-9.24-6.29,28.28,28.28,0,0,1-6-9.78A36.63,36.63,0,0,1,0,45.16a51.06,51.06,0,0,1,1.29-11.5A50.54,50.54,0,0,1,5,23,45.83,45.83,0,0,1,11,13.77a38.79,38.79,0,0,1,7.94-7.26,37.78,37.78,0,0,1,9.75-4.78A36,36,0,0,1,39.91,0,29.12,29.12,0,0,1,50.23,1.69a23.72,23.72,0,0,1,7.52,4.39,18.59,18.59,0,0,1,4.56,6,15.54,15.54,0,0,1,1.55,6.62,20.74,20.74,0,0,1-2,9.13,19,19,0,0,1-7.05,7.44,48.21,48.21,0,0,1-13.67,5.61,135.8,135.8,0,0,1-21.79,3.63ZM38.76,13.59a13.86,13.86,0,0,0-6,1.33,17,17,0,0,0-5.07,3.74,25.08,25.08,0,0,0-4,5.79A36.86,36.86,0,0,0,20.93,32a110.84,110.84,0,0,0,12.9-2.48,32.89,32.89,0,0,0,7.63-2.88,8.57,8.57,0,0,0,3.59-3.34,8.55,8.55,0,0,0,.9-3.88,5.28,5.28,0,0,0-.43-2.05,5.51,5.51,0,0,0-1.29-1.87A6.87,6.87,0,0,0,42,14.13,8.79,8.79,0,0,0,38.76,13.59Z"/></g></g></svg>