<svg xmlns="http://www.w3.org/2000/svg" viewBox="0 0 175.47 29.8"><defs><style>.cls-1{fill:#6cbe45;}.cls-2{fill:#f7ae1a;}.cls-3{fill:#73cac3;}.cls-4{fill:#495eab;}</style></defs><g id="Layer_2" data-name="Layer 2"><g id="Printer_Marks" data-name="Printer Marks"><path class="cls-1" d="M8.47,4.23,7.42,12.64h9.35l-.51,4.07H6.91L5.85,25.33H17.79l-.53,4.24H0L3.64,0H20.88l-.53,4.23Z"/><path class="cls-2" d="M23,15.19h9.83l-.53,4.07H22.49Z"/><path class="cls-3" d="M48.16,0a13.84,13.84,0,0,1,4.33.6,8.15,8.15,0,0,1,3,1.69,6.61,6.61,0,0,1,1.73,2.57,9,9,0,0,1,.56,3.26A12.66,12.66,0,0,1,57,12.5,9.44,9.44,0,0,1,54.77,16,10.5,10.5,0,0,1,51,18.27a15.15,15.15,0,0,1-5.23.83H42.13L40.84,29.57H35.57L39.17,0ZM46.34,15a7.2,7.2,0,0,0,2.72-.47A5.14,5.14,0,0,0,51,13.18a5.57,5.57,0,0,0,1.1-2,8.63,8.63,0,0,0,.36-2.57,5.68,5.68,0,0,0-.29-1.84,3.45,3.45,0,0,0-.88-1.42,3.94,3.94,0,0,0-1.48-.91,6.09,6.09,0,0,0-2.12-.33H44L42.64,15Z"/><path class="cls-3" d="M75,29.57H72.1a1.06,1.06,0,0,1-.75-.24,1.25,1.25,0,0,1-.38-.61l-.86-4.32H62.4l-1.92,4.32a1.66,1.66,0,0,1-.51.59,1.33,1.33,0,0,1-.81.26H56.24l10-20.7H70Zm-5.4-7.79-1.4-7.08c-.06-.33-.13-.71-.2-1.14s-.16-.89-.23-1.4c-.19.51-.38,1-.56,1.4s-.34.82-.49,1.15l-3.13,7.07Z"/><path class="cls-3" d="M89,12.59a1.81,1.81,0,0,1-.4.42.77.77,0,0,1-.47.14,1,1,0,0,1-.59-.23l-.72-.51a5.93,5.93,0,0,0-1-.51,3.81,3.81,0,0,0-1.38-.22,3.9,3.9,0,0,0-1.37.22,3.1,3.1,0,0,0-1,.63,2.74,2.74,0,0,0-.62,1,3.2,3.2,0,0,0-.2,1.17,1.78,1.78,0,0,0,.33,1.1,3.29,3.29,0,0,0,.88.76,6.91,6.91,0,0,0,1.25.59l1.42.54a14.1,14.1,0,0,1,1.43.66,5.4,5.4,0,0,1,1.24.92,4.19,4.19,0,0,1,.88,1.31A4.66,4.66,0,0,1,89,22.38a7.77,7.77,0,0,1-.53,2.86A7.17,7.17,0,0,1,87,27.6a7,7,0,0,1-2.37,1.6,7.92,7.92,0,0,1-3.14.6,8.07,8.07,0,0,1-1.77-.2,8.2,8.2,0,0,1-1.65-.55,7.64,7.64,0,0,1-1.43-.86,6,6,0,0,1-1.14-1.11l1.31-1.78a1.44,1.44,0,0,1,.4-.33,1.16,1.16,0,0,1,.49-.13.81.81,0,0,1,.45.15,5.18,5.18,0,0,1,.49.35l.57.45a4.46,4.46,0,0,0,.7.46,4.33,4.33,0,0,0,.9.35,4.13,4.13,0,0,0,1.16.15,3.18,3.18,0,0,0,3.46-3.45,2,2,0,0,0-.33-1.18,2.84,2.84,0,0,0-.87-.77A7.12,7.12,0,0,0,83,20.8l-1.41-.5a12.57,12.57,0,0,1-1.41-.62,4.58,4.58,0,0,1-1.24-.9A4.24,4.24,0,0,1,78,17.43a5.22,5.22,0,0,1-.33-2,6.81,6.81,0,0,1,.49-2.56,6.69,6.69,0,0,1,1.42-2.17,7.17,7.17,0,0,1,2.23-1.5,7.37,7.37,0,0,1,3-.56,7.18,7.18,0,0,1,1.62.17,6.76,6.76,0,0,1,1.46.48,6.62,6.62,0,0,1,1.23.75,5.63,5.63,0,0,1,1,1Z"/><path class="cls-3" d="M103.49,12.59a1.81,1.81,0,0,1-.4.42.78.78,0,0,1-.48.14,1,1,0,0,1-.58-.23l-.72-.51a5.67,5.67,0,0,0-1-.51A3.75,3.75,0,0,0,99,11.68a3.9,3.9,0,0,0-1.37.22,3.1,3.1,0,0,0-1,.63,2.74,2.74,0,0,0-.62,1,3.2,3.2,0,0,0-.21,1.17,1.78,1.78,0,0,0,.34,1.1,3.14,3.14,0,0,0,.88.76,6.91,6.91,0,0,0,1.25.59l1.42.54a13,13,0,0,1,1.42.66,5.25,5.25,0,0,1,1.25.92,4.19,4.19,0,0,1,.88,1.31,4.66,4.66,0,0,1,.34,1.85,7.77,7.77,0,0,1-.53,2.86,7.17,7.17,0,0,1-1.51,2.36,7.08,7.08,0,0,1-2.37,1.6,7.92,7.92,0,0,1-3.14.6,8.07,8.07,0,0,1-1.77-.2,8.2,8.2,0,0,1-1.65-.55,7.64,7.64,0,0,1-1.43-.86A6,6,0,0,1,90,27.08l1.31-1.78a1.44,1.44,0,0,1,.4-.33,1.16,1.16,0,0,1,.49-.13.81.81,0,0,1,.45.15,5.18,5.18,0,0,1,.49.35l.57.45a4.46,4.46,0,0,0,.7.46,4.42,4.42,0,0,0,2.06.5,3.18,3.18,0,0,0,3.46-3.45,2,2,0,0,0-.33-1.18,2.84,2.84,0,0,0-.87-.77,7.47,7.47,0,0,0-1.24-.55l-1.41-.5a12.57,12.57,0,0,1-1.41-.62,4.58,4.58,0,0,1-1.24-.9,4.24,4.24,0,0,1-.87-1.35,5.22,5.22,0,0,1-.33-2,6.81,6.81,0,0,1,.49-2.56,6.53,6.53,0,0,1,1.42-2.17,7.17,7.17,0,0,1,2.23-1.5,7.37,7.37,0,0,1,3-.56,7.18,7.18,0,0,1,1.62.17,6.76,6.76,0,0,1,1.46.48,6.62,6.62,0,0,1,1.23.75,5.63,5.63,0,0,1,1,1Z"/><path class="cls-4" d="M114.44,8.87a9.61,9.61,0,0,1,3,.42,5.71,5.71,0,0,1,2.09,1.18,4.89,4.89,0,0,1,1.21,1.8,6.42,6.42,0,0,1,.39,2.28,8.72,8.72,0,0,1-.52,3.07,6.61,6.61,0,0,1-1.57,2.44,7.42,7.42,0,0,1-2.61,1.6,10.73,10.73,0,0,1-3.66.58h-2.58l-.9,7.33h-3.69l2.52-20.7Zm-1.28,10.48a5,5,0,0,0,1.91-.33,3.51,3.51,0,0,0,1.32-.93,3.58,3.58,0,0,0,.77-1.41,6,6,0,0,0,.25-1.8,3.8,3.8,0,0,0-.2-1.29,2.51,2.51,0,0,0-.61-1,2.86,2.86,0,0,0-1-.64,4.34,4.34,0,0,0-1.48-.23H111.5l-.93,7.62Z"/><path class="cls-4" d="M141.69,17.83a14,14,0,0,1-.38,3.27A12.07,12.07,0,0,1,140.23,24a11.5,11.5,0,0,1-1.7,2.41,10.88,10.88,0,0,1-2.24,1.83,10.45,10.45,0,0,1-2.69,1.17,11.14,11.14,0,0,1-3,.41,8.59,8.59,0,0,1-3.55-.71,7.81,7.81,0,0,1-2.69-1.93,8.46,8.46,0,0,1-1.69-2.9,11,11,0,0,1-.59-3.64,14,14,0,0,1,.38-3.27,12.09,12.09,0,0,1,1.09-2.88,11.5,11.5,0,0,1,1.7-2.41,10.93,10.93,0,0,1,2.23-1.84,10.45,10.45,0,0,1,2.69-1.17,11.23,11.23,0,0,1,3.05-.41,8.62,8.62,0,0,1,3.55.7,7.77,7.77,0,0,1,2.67,1.93,8.55,8.55,0,0,1,1.69,2.92A11,11,0,0,1,141.69,17.83Zm-3.81.09a8.78,8.78,0,0,0-.35-2.55,5.45,5.45,0,0,0-1-2,4.34,4.34,0,0,0-1.62-1.26,5,5,0,0,0-2.16-.45,6.12,6.12,0,0,0-5,2.42,8.7,8.7,0,0,0-1.4,2.79,12.48,12.48,0,0,0-.49,3.62,8.79,8.79,0,0,0,.34,2.55,5.58,5.58,0,0,0,1,2,4.44,4.44,0,0,0,1.61,1.24,5.19,5.19,0,0,0,2.17.44,6.33,6.33,0,0,0,2.84-.63A6.2,6.2,0,0,0,136,24.31a8.3,8.3,0,0,0,1.4-2.77A12.38,12.38,0,0,0,137.88,17.92Z"/><path class="cls-4" d="M151.69,8.87a11,11,0,0,1,3.07.38,5.6,5.6,0,0,1,2.1,1.06,4.14,4.14,0,0,1,1.2,1.62,5.39,5.39,0,0,1,.39,2.08,7.25,7.25,0,0,1-.34,2.25,6.47,6.47,0,0,1-1,1.91,6.55,6.55,0,0,1-1.55,1.51,7.29,7.29,0,0,1-2.08,1,2.75,2.75,0,0,1,.6.48,2.86,2.86,0,0,1,.46.69l3.7,7.72h-3.34a1.24,1.24,0,0,1-1.27-.75l-3-6.71a1.19,1.19,0,0,0-.42-.54,1.47,1.47,0,0,0-.78-.16H148l-1,8.16h-3.69l2.52-20.7Zm-1.24,9.89a5.29,5.29,0,0,0,1.92-.32,3.56,3.56,0,0,0,2.13-2.21,5.11,5.11,0,0,0,.26-1.63,2.71,2.71,0,0,0-.84-2.11,3.77,3.77,0,0,0-2.57-.76h-2.18l-.86,7Z"/><path class="cls-4" d="M175.08,11.92h-5.65l-2.18,17.65h-3.69l2.15-17.65H160l.38-3.05h15.07Z"/></g></g></svg>